<svg width="235.000000" height="25.000000" viewBox="0 0 235 25" fill="none" xmlns="http://www.w3.org/2000/svg" xmlns:xlink="http://www.w3.org/1999/xlink">
	<desc>
			Created with Pixso.
	</desc>
	<defs/>
	<path d="M42.6594 23.2396C41.6814 23.7135 40.5405 23.9504 39.2366 23.9504Q37.2968 23.9504 35.7363 23.181L35.7352 23.1805Q35.6311 23.1292 35.5287 23.0743Q34.861 22.7173 34.3083 22.2297Q33.5053 21.5212 32.9453 20.5372Q32 18.876 32 16.4958Q32 14.3689 32.8452 12.6598Q32.9129 12.5227 32.9861 12.3884Q33.4992 11.4465 34.222 10.7106Q34.8881 10.0323 35.7324 9.52893Q35.8162 9.479 35.9012 9.4314Q37.6043 8.47937 39.8397 8.47937Q41.8444 8.47937 43.2216 9.07434Q44.5989 9.66943 45.3242 10.6859Q45.6752 11.178 45.8564 11.7261Q46.0494 12.3105 46.0494 12.9586Q46.0494 14.067 45.517 14.7748L45.5169 14.7749Q45.4141 14.9114 45.2916 15.0331Q45.1584 15.1653 45.0083 15.2742Q44.3046 15.7852 43.2298 15.7852Q42.0858 15.7852 41.4135 15.222Q41.3004 15.1272 41.2006 15.0165C40.7388 14.5042 40.5079 13.8016 40.5079 12.9091L40.5079 11.8512Q40.5079 11.0414 40.2145 10.6281C40.0189 10.3527 39.7419 10.2148 39.3833 10.2148Q39.2324 10.2148 39.0898 10.2494Q38.7242 10.3378 38.4135 10.6528C38.1256 10.9449 37.9028 11.3829 37.7453 11.9669Q37.509 12.843 37.509 14.1322C37.509 15.3663 37.691 16.4022 38.0549 17.2396C38.4189 18.0771 38.9161 18.7052 39.5463 19.124Q39.8488 19.325 40.1779 19.4615Q40.8775 19.7521 41.6977 19.7521C42.5018 19.7521 43.1755 19.6337 43.7188 19.3967C44.262 19.1598 44.6804 18.7604 44.9738 18.1984C45.1367 18.0441 45.2644 17.9449 45.3568 17.9009C45.4491 17.8567 45.5388 17.8347 45.6257 17.8347C45.7344 17.8457 45.824 17.8981 45.8946 17.9917C45.9558 18.0729 45.9865 18.1934 45.9865 18.3531C45.9865 18.3778 45.9857 18.4033 45.9843 18.4298C45.8973 19.5096 45.5659 20.4628 44.9901 21.2893C44.4142 22.1157 43.6373 22.7659 42.6594 23.2396ZM59.2269 22.9091C58.0045 23.5813 56.5839 23.9174 54.9648 23.9174Q52.6015 23.9174 50.8168 22.9338Q49.8107 22.3794 49.0557 21.5859Q48.4716 20.9719 48.0379 20.2148Q48.0056 20.1584 47.9743 20.1014Q47.0437 18.4052 47.0437 16.1984Q47.0437 14.5693 47.6252 13.1844Q47.8225 12.7145 48.0868 12.2727C48.7822 11.1102 49.7438 10.1874 50.9717 9.50415Q51.0118 9.48181 51.0522 9.45996Q52.8657 8.47937 55.2093 8.47937Q57.5889 8.47937 59.3655 9.47107C60.5499 10.1322 61.4734 11.0469 62.1362 12.2148C62.7991 13.3829 63.1305 14.7328 63.1305 16.2644C63.1305 17.719 62.7855 19.0221 62.0955 20.1736C61.4055 21.3251 60.4493 22.2369 59.2269 22.9091ZM56.2036 22.1984C55.8667 22.2644 55.538 22.1157 55.2175 21.7521C54.8969 21.3884 54.5927 20.7769 54.3047 19.9174Q53.8728 18.6281 53.4816 16.5289C53.2318 15.1295 53.0905 13.9779 53.0579 13.0743C53.0524 12.9238 53.0497 12.7793 53.0497 12.641Q53.0497 11.6033 53.2535 11.0248C53.4164 10.562 53.6664 10.292 54.0032 10.2148C54.34 10.1488 54.6688 10.2975 54.9893 10.6611C55.3098 11.0248 55.6168 11.6364 55.9102 12.4958C56.2036 13.3553 56.4806 14.4849 56.7414 15.8843C57.0022 17.2837 57.1461 18.438 57.1733 19.3472C57.1771 19.4734 57.179 19.5953 57.179 19.713C57.179 20.4424 57.1064 21.0065 56.9614 21.4049C56.793 21.8678 56.5403 22.1322 56.2036 22.1984ZM74.7514 22.8595C74.7514 23.3663 74.4961 23.6199 73.9854 23.6199L64.9885 23.6199C64.7712 23.6199 64.5946 23.5565 64.4588 23.4298C64.323 23.303 64.2551 23.124 64.2551 22.8926C64.2551 22.6942 64.3013 22.5344 64.3936 22.4132C64.486 22.292 64.6299 22.1929 64.8256 22.1157L65.5264 21.9009Q65.6559 21.8597 65.7573 21.782Q65.86 21.7032 65.9338 21.5868C66.0316 21.4325 66.0805 21.2122 66.0805 20.9257L66.0805 11.3719C66.0805 11.2177 66.0425 11.0881 65.9664 10.9835C65.8904 10.8788 65.7491 10.7823 65.5427 10.6942L64.5974 10.3801C64.3474 10.2589 64.1682 10.1295 64.0595 9.9917Q64.0231 9.94556 63.9948 9.8949Q63.8965 9.71863 63.8965 9.48755C63.8965 9.28931 63.9644 9.12671 64.1002 9L64.1536 8.95544C64.2838 8.8584 64.4534 8.80994 64.6625 8.80994L66.0928 8.80994L66.0815 8.71338C66.051 8.52014 65.9746 8.33472 65.8524 8.15698C65.6893 7.92017 65.5046 7.65283 65.2982 7.35535Q64.9885 6.90906 64.744 6.28931Q64.4996 5.66943 64.4996 4.76038Q64.4996 3.35974 65.1133 2.32214Q65.4484 1.75574 65.9664 1.29749C66.9443 0.432495 68.3352 0 70.1389 0C71.3015 0 72.2659 0.187378 73.0319 0.562012C73.798 0.936646 74.3711 1.4353 74.7514 2.05786C75.1317 2.68042 75.3219 3.36084 75.3219 4.09912Q75.3219 5.35876 74.6924 6.01086Q74.6694 6.03479 74.6455 6.05786C74.1946 6.49316 73.616 6.71069 72.9097 6.71069C72.1273 6.71069 71.4971 6.45728 71.019 5.95044C70.541 5.44348 70.3019 4.77136 70.3019 3.93384L70.3019 2.46277Q70.3019 1.88428 70.0737 1.61157C69.9216 1.42981 69.688 1.33887 69.3729 1.33887C68.9708 1.33887 68.6666 1.47656 68.4601 1.75208C68.2537 2.02759 68.1505 2.42419 68.1505 2.94214C68.1505 3.47107 68.2727 3.96692 68.5172 4.42981Q68.5206 4.43628 68.524 4.44275Q68.8889 5.12964 69.4218 5.72729C69.7803 6.12952 70.1389 6.51514 70.4975 6.88428Q71.0353 7.43799 71.402 7.97522L71.4717 8.08252Q71.6697 8.40442 71.7358 8.72327L71.7507 8.80994L74.1647 8.80994Q74.5396 8.80994 74.7433 8.96692C74.8791 9.07166 74.947 9.23413 74.947 9.45459C74.947 9.78516 74.8058 10.0551 74.5233 10.2644C74.2407 10.4739 73.7952 10.5785 73.1868 10.5785L72.0295 10.5785L72.0295 20.876C72.0295 21.1846 72.0757 21.4215 72.1681 21.5868C72.2604 21.7521 72.4099 21.8512 72.6163 21.8843L74.018 22.0991C74.2679 22.1322 74.4526 22.2122 74.5721 22.3389C74.6917 22.4656 74.7514 22.6392 74.7514 22.8595ZM86.1279 22.8595C86.1279 23.3663 85.8726 23.6199 85.3619 23.6199L76.365 23.6199C76.1477 23.6199 75.9711 23.5565 75.8353 23.4298C75.6995 23.303 75.6315 23.124 75.6315 22.8926C75.6315 22.6942 75.6777 22.5344 75.7701 22.4132C75.8624 22.292 76.0064 22.1929 76.202 22.1157L76.9028 21.9009Q77.0323 21.8597 77.1338 21.782Q77.2365 21.7032 77.3103 21.5868C77.4081 21.4325 77.457 21.2122 77.457 20.9257L77.457 11.3719C77.457 11.2177 77.4189 11.0881 77.3429 10.9835C77.2668 10.8788 77.1256 10.7823 76.9191 10.6942L75.9738 10.3801C75.7239 10.2589 75.5446 10.1295 75.436 9.9917Q75.3995 9.94556 75.3713 9.8949Q75.273 9.71863 75.273 9.48755C75.273 9.28931 75.3409 9.12671 75.4767 9L75.5301 8.95544C75.6602 8.8584 75.8298 8.80994 76.039 8.80994L77.4692 8.80994L77.458 8.71338C77.4275 8.52014 77.3511 8.33472 77.2288 8.15698C77.0659 7.92017 76.8811 7.65283 76.6747 7.35535Q76.365 6.90906 76.1205 6.28931Q75.876 5.66943 75.876 4.76038Q75.876 3.35974 76.4898 2.32214Q76.8249 1.75574 77.3429 1.29749C78.3209 0.432495 79.7117 0 81.5154 0C82.678 0 83.6423 0.187378 84.4084 0.562012C85.1744 0.936646 85.7476 1.4353 86.1279 2.05786C86.5082 2.68042 86.6984 3.36084 86.6984 4.09912C86.6984 4.96973 86.4729 5.62256 86.022 6.05786C85.571 6.49316 84.9924 6.71069 84.2861 6.71069C83.5038 6.71069 82.8736 6.45728 82.3955 5.95044C81.9174 5.44348 81.6783 4.77136 81.6783 3.93384L81.6783 2.46277Q81.6783 1.88428 81.4502 1.61157C81.298 1.42981 81.0645 1.33887 80.7493 1.33887C80.3473 1.33887 80.0431 1.47656 79.8366 1.75208C79.6302 2.02759 79.5269 2.42419 79.5269 2.94214C79.5269 3.47107 79.6492 3.96692 79.8937 4.42981Q79.8971 4.43628 79.9005 4.44263Q80.2654 5.12964 80.7982 5.72729C81.1568 6.12952 81.5154 6.51514 81.874 6.88428Q82.4118 7.43799 82.7785 7.97522L82.8482 8.08252Q83.0462 8.40442 83.1122 8.72327L83.1271 8.80994L85.5411 8.80994Q85.916 8.80994 86.1198 8.96692C86.2556 9.07166 86.3235 9.23413 86.3235 9.45459C86.3235 9.78516 86.1823 10.0551 85.8997 10.2644C85.6172 10.4739 85.1717 10.5785 84.5632 10.5785L83.406 10.5785L83.406 20.876C83.406 21.1846 83.4522 21.4215 83.5446 21.5868C83.6369 21.7521 83.7863 21.8512 83.9928 21.8843L85.3945 22.0991C85.6443 22.1322 85.8291 22.2122 85.9486 22.3389C86.0681 22.4656 86.1279 22.6392 86.1279 22.8595ZM98.1237 23.1405C97.0698 23.6804 95.8528 23.9504 94.4728 23.9504C92.9516 23.9504 91.6151 23.6337 90.4634 23C89.3116 22.3663 88.4124 21.4794 87.7659 20.3389C87.1194 19.1984 86.7961 17.8788 86.7961 16.3801C86.7961 14.8044 87.1085 13.4242 87.7333 12.2396C88.3581 11.0551 89.2627 10.1322 90.447 9.47107C91.6314 8.80994 93.0548 8.47937 94.7173 8.47937C96.1299 8.47937 97.3468 8.75757 98.3682 9.31409C99.3896 9.87048 100.175 10.6254 100.723 11.5785Q100.952 11.975 101.117 12.3961Q101.546 13.494 101.546 14.7604C101.546 15.2672 101.411 15.6666 101.139 15.9586L101.074 16.0234C100.806 16.2723 100.437 16.3967 99.9655 16.3967L92.5147 16.3967L92.5307 16.4729C92.7284 17.3804 93.0661 18.1071 93.5438 18.6528C94.3587 19.584 95.4453 20.0496 96.8035 20.0496C97.6728 20.0496 98.4415 19.8512 99.1098 19.4546C99.778 19.0579 100.226 18.5068 100.454 17.8016C100.585 17.6584 100.702 17.562 100.805 17.5125C100.908 17.4628 100.998 17.438 101.074 17.438C101.182 17.438 101.275 17.4821 101.351 17.5702C101.427 17.6584 101.465 17.8071 101.465 18.0165C101.465 19.0964 101.172 20.0854 100.585 20.9835C99.998 21.8816 99.1777 22.6006 98.1237 23.1405ZM92.3447 15.0717Q92.3214 14.6914 92.3214 14.281C92.3214 13.2452 92.3975 12.4298 92.5496 11.8347C92.7017 11.2396 92.8973 10.8182 93.1364 10.5702C93.3754 10.3223 93.6416 10.1984 93.9349 10.1984C94.3152 10.1984 94.6711 10.5234 95.0025 11.1736Q95.4996 12.1488 95.4996 14.4132C95.4996 14.876 95.2932 15.1074 94.8803 15.1074L92.3467 15.1074L92.3447 15.0717ZM113.705 23.1405C112.651 23.6804 111.434 23.9504 110.054 23.9504C108.533 23.9504 107.197 23.6337 106.045 23C104.893 22.3663 103.994 21.4794 103.347 20.3389C102.701 19.1984 102.378 17.8788 102.378 16.3801C102.378 14.8044 102.69 13.4242 103.315 12.2396C103.94 11.0551 104.844 10.1322 106.029 9.47107C107.213 8.80994 108.636 8.47937 110.299 8.47937C111.711 8.47937 112.928 8.75757 113.95 9.31409C114.971 9.87048 115.756 10.6254 116.305 11.5785C116.854 12.5317 117.128 13.5923 117.128 14.7604C117.128 15.2672 116.992 15.6666 116.721 15.9586L116.656 16.0234C116.388 16.2723 116.018 16.3967 115.547 16.3967L108.096 16.3967L108.112 16.4729C108.31 17.3804 108.648 18.1071 109.125 18.6528Q109.572 19.1627 110.126 19.4866Q111.091 20.0496 112.385 20.0496C113.254 20.0496 114.023 19.8512 114.691 19.4546C115.36 19.0579 115.808 18.5068 116.036 17.8016C116.166 17.6584 116.283 17.562 116.386 17.5125C116.49 17.4628 116.579 17.438 116.655 17.438C116.764 17.438 116.856 17.4821 116.932 17.5702C117.008 17.6584 117.047 17.8071 117.047 18.0165C117.047 19.0964 116.753 20.0854 116.166 20.9835C115.58 21.8816 114.759 22.6006 113.705 23.1405ZM107.926 15.0717Q107.903 14.6914 107.903 14.281C107.903 13.2452 107.979 12.4298 108.131 11.8347C108.283 11.2396 108.479 10.8182 108.718 10.5702Q108.988 10.2904 109.304 10.2211Q109.408 10.1984 109.516 10.1984C109.897 10.1984 110.253 10.5234 110.584 11.1736C110.915 11.8237 111.081 12.9036 111.081 14.4132Q111.081 14.7998 110.889 14.9711Q110.736 15.1074 110.462 15.1074L107.928 15.1074L107.926 15.0717ZM127.6 23.4132C127.464 23.551 127.266 23.6199 127.005 23.6199L118.856 23.6199C118.617 23.6199 118.429 23.5537 118.293 23.4215C118.158 23.2893 118.09 23.1074 118.09 22.876C118.09 22.6997 118.13 22.5537 118.212 22.438Q118.334 22.2644 118.546 22.1157L118.921 21.9669Q119.033 21.9142 119.109 21.8289Q119.176 21.7535 119.214 21.6528C119.269 21.5096 119.296 21.2727 119.296 20.9421L119.296 12.5454C119.296 12.281 119.266 12.0909 119.206 11.9752C119.146 11.8595 119.046 11.7686 118.905 11.7025L118.481 11.6528C118.329 11.5647 118.217 11.4711 118.147 11.3719C118.076 11.2727 118.041 11.146 118.041 10.9917C118.041 10.8154 118.095 10.6584 118.204 10.5206C118.312 10.3829 118.497 10.2644 118.758 10.1653L123.387 8.82642C123.658 8.71631 123.886 8.63916 124.071 8.59509Q124.348 8.52893 124.544 8.52893C124.729 8.52893 124.867 8.59509 124.959 8.72729L124.989 8.77527C125.065 8.91345 125.118 9.1344 125.147 9.43799L125.271 12.0065L125.299 11.9116C125.354 11.7327 125.415 11.561 125.481 11.3967C125.878 10.4105 126.402 9.67773 127.054 9.19836Q127.662 8.75098 128.34 8.58203Q128.752 8.47937 129.189 8.47937C130.123 8.47937 130.841 8.79333 131.34 9.42151C131.84 10.0496 132.09 11.0028 132.09 12.281Q132.09 14.1818 131.308 15.0743C130.786 15.6694 130.113 15.9669 129.287 15.9669Q128.098 15.9669 127.519 15.3727Q127.51 15.3641 127.502 15.3553C127.116 14.9476 126.913 14.3691 126.891 13.6199L126.875 12.9586C126.864 12.7052 126.815 12.5068 126.728 12.3636C126.641 12.2203 126.5 12.1488 126.304 12.1488C126.109 12.1488 125.937 12.2507 125.791 12.4546C125.644 12.6584 125.533 12.9697 125.457 13.3884Q125.343 14.0165 125.343 14.9917L125.343 20.8099C125.343 21.1184 125.391 21.3636 125.489 21.5454C125.587 21.7273 125.739 21.8402 125.946 21.8843L127.168 22.1322Q127.49 22.1788 127.639 22.3644Q127.648 22.3761 127.657 22.3884Q127.69 22.4354 127.716 22.4862Q127.804 22.6589 127.804 22.876C127.804 23.0964 127.736 23.2755 127.6 23.4132ZM144.893 22.9091C143.67 23.5813 142.25 23.9174 140.631 23.9174C139.055 23.9174 137.672 23.5895 136.483 22.9338Q135.477 22.3794 134.722 21.5859Q134.137 20.972 133.704 20.2148Q133.671 20.1584 133.64 20.1014Q132.71 18.4052 132.71 16.1984C132.71 14.7438 133.057 13.4353 133.753 12.2727C134.448 11.1102 135.41 10.1874 136.637 9.50415Q136.678 9.48181 136.718 9.45996Q138.532 8.47937 140.875 8.47937C142.462 8.47937 143.847 8.80994 145.031 9.47107C146.216 10.1322 147.139 11.0469 147.802 12.2148Q147.827 12.2595 147.852 12.3046Q148.796 14.0255 148.796 16.2644C148.796 17.719 148.451 19.0221 147.761 20.1736C147.071 21.3251 146.115 22.2369 144.893 22.9091ZM141.869 22.1984C141.533 22.2644 141.204 22.1157 140.883 21.7521C140.563 21.3884 140.259 20.7769 139.971 19.9174Q139.539 18.6281 139.147 16.5289C138.898 15.1295 138.756 13.9779 138.724 13.0743Q138.716 12.8485 138.716 12.641C138.716 11.9492 138.783 11.4105 138.919 11.0248C139.082 10.562 139.332 10.292 139.669 10.2148C140.006 10.1488 140.335 10.2975 140.655 10.6611C140.976 11.0248 141.283 11.6364 141.576 12.4958Q142.016 13.7852 142.407 15.8843C142.668 17.2837 142.812 18.438 142.839 19.3472C142.843 19.4734 142.845 19.5953 142.845 19.7129C142.845 20.4424 142.772 21.0065 142.627 21.4049C142.459 21.8678 142.206 22.1322 141.869 22.1984ZM163.97 23.4463C163.384 23.7823 162.634 23.9504 161.721 23.9504C160.624 23.9504 159.773 23.7163 159.17 23.2479L159.067 23.1642C158.733 22.8812 158.504 22.5612 158.379 22.2039L158.355 22.1299L158.332 22.1586C157.935 22.6493 157.418 23.0454 156.783 23.3472C155.935 23.7493 155.022 23.9504 154.044 23.9504Q152.286 23.9504 151.153 23.1083Q151.026 23.0139 150.907 22.9091C150.119 22.2148 149.725 21.3279 149.725 20.2479C149.725 18.8264 150.299 17.719 151.445 16.9257C152.591 16.1322 154.332 15.7356 156.669 15.7356L156.844 15.7373C157.189 15.7446 157.493 15.7736 157.755 15.8241L157.842 15.843L157.842 11.0248C157.842 10.6392 157.752 10.3334 157.573 10.1074C157.394 9.88159 157.152 9.76855 156.848 9.76855C156.565 9.76855 156.329 9.854 156.139 10.0248C155.949 10.1956 155.854 10.4353 155.854 10.7438L155.854 12Q155.854 12.781 155.521 13.3767Q155.333 13.7139 155.039 13.9917C154.495 14.5042 153.751 14.7604 152.806 14.7604Q151.649 14.7604 151.037 14.2067C150.63 13.8375 150.426 13.3003 150.426 12.5951Q150.426 12.5352 150.429 12.4755Q150.476 11.5459 151.249 10.6528C151.798 10.0193 152.618 9.49866 153.71 9.09094C154.802 8.68323 156.163 8.47937 157.793 8.47937Q160.939 8.47937 162.414 9.67773C163.397 10.4766 163.889 11.6033 163.889 13.0579L163.889 20.3636C163.889 20.573 163.935 20.7411 164.027 20.8678C164.12 20.9945 164.258 21.0579 164.443 21.0579Q164.51 21.0579 164.574 21.0443Q164.697 21.0183 164.81 20.9421C164.924 20.865 165.008 20.7273 165.062 20.5289C165.095 20.4849 165.133 20.4518 165.176 20.4298C165.22 20.4077 165.269 20.3967 165.323 20.3967Q165.395 20.3967 165.455 20.4235Q165.545 20.4631 165.608 20.562C165.679 20.6721 165.714 20.8099 165.714 20.9752C165.714 21.3608 165.57 21.7852 165.282 22.2479C164.994 22.7107 164.557 23.1102 163.97 23.4463ZM157.158 21.3719C156.723 21.3719 156.372 21.1929 156.106 20.8347C155.84 20.4766 155.707 19.9283 155.707 19.1901C155.707 18.4187 155.835 17.8347 156.09 17.438C156.345 17.0414 156.685 16.843 157.109 16.843C157.359 16.843 157.576 16.8678 157.761 16.9174L157.842 16.9421L157.842 21.1836L157.789 21.2137C157.615 21.3041 157.436 21.3557 157.251 21.3687L157.158 21.3719ZM177.661 22.6611C176.629 23.5537 175.146 24 173.212 24Q172.234 24 171.59 23.8182C171.161 23.697 170.813 23.5758 170.547 23.4546C170.281 23.3334 170.066 23.2727 169.903 23.2727C169.74 23.2727 169.526 23.3334 169.259 23.4546L168.461 23.8182Q168.061 24 167.784 24C167.621 24 167.469 23.9449 167.328 23.8347C167.187 23.7245 167.078 23.5042 167.002 23.1736L166.497 19.8843C166.438 19.6331 166.409 19.4056 166.409 19.202C166.409 19.0663 166.422 18.941 166.448 18.8264C166.513 18.5399 166.66 18.3527 166.888 18.2644C167.127 18.1543 167.363 18.1488 167.597 18.2479C167.83 18.3472 168.04 18.5234 168.224 18.7769C168.844 19.7356 169.403 20.4904 169.903 21.0413C170.403 21.5923 170.889 21.9807 171.362 22.2067C171.834 22.4325 172.332 22.5454 172.853 22.5454C173.407 22.5454 173.82 22.4132 174.092 22.1488C174.363 21.8843 174.499 21.5482 174.499 21.1405C174.499 20.8319 174.421 20.551 174.263 20.2975C174.105 20.0441 173.818 19.8099 173.399 19.5951C172.981 19.3801 172.38 19.1681 171.598 18.9586C170.392 18.6501 169.392 18.2479 168.599 17.7521C167.806 17.2562 167.217 16.6611 166.831 15.9669C166.445 15.2727 166.252 14.4628 166.252 13.5372C166.252 12.4904 166.51 11.5895 167.026 10.8347C167.542 10.0798 168.249 9.49866 169.145 9.09094Q170.49 8.47937 172.169 8.47937C172.842 8.47937 173.391 8.54541 173.815 8.67773C174.239 8.80994 174.567 8.94214 174.801 9.07434C175.034 9.20667 175.211 9.27271 175.331 9.27271C175.461 9.27271 175.654 9.20935 175.909 9.08264C176.164 8.95593 176.423 8.83191 176.683 8.71069Q177.074 8.52893 177.335 8.52893C177.531 8.52893 177.688 8.59509 177.808 8.72729C177.927 8.8595 178.009 9.08545 178.052 9.40491L178.476 12.4463C178.521 12.7034 178.543 12.9258 178.543 13.1135C178.543 13.2477 178.531 13.3641 178.509 13.4628C178.454 13.6997 178.313 13.8512 178.085 13.9174Q178.053 13.925 178.02 13.9296Q177.772 13.9633 177.498 13.8099C177.292 13.6942 177.085 13.5096 176.879 13.2562C176.086 12.0551 175.36 11.2067 174.703 10.7107C174.046 10.2148 173.348 9.96692 172.609 9.96692Q171.81 9.96692 171.403 10.3141C171.131 10.5454 170.995 10.8485 170.995 11.2231C170.995 11.4766 171.055 11.7135 171.174 11.9338Q171.354 12.2644 171.834 12.5537C172.155 12.7466 172.609 12.9366 173.195 13.124C174.771 13.6088 175.993 14.124 176.863 14.6694C177.732 15.2148 178.34 15.8402 178.688 16.5454C179.036 17.2507 179.21 18.0717 179.21 19.0083C179.21 20.551 178.694 21.7686 177.661 22.6611ZM188.663 23.3801Q187.587 23.9504 186.12 23.9504C184.469 23.9504 183.227 23.5482 182.396 22.7438C181.565 21.9395 181.149 20.6721 181.149 18.9421L181.149 11.4711C181.149 11.2396 181.127 11.0634 181.084 10.9421C181.041 10.8209 180.932 10.7218 180.758 10.6447L179.992 10.3967C179.807 10.3086 179.688 10.201 179.633 10.0743C179.579 9.94763 179.552 9.79065 179.552 9.60327C179.552 9.37195 179.633 9.18176 179.796 9.03308C179.959 8.88428 180.16 8.80994 180.399 8.80994L181.198 8.80994Q181.345 8.80994 181.508 8.69421C181.616 8.61707 181.763 8.46277 181.948 8.23145L184.963 5.70251Q185.289 5.30579 185.615 5.09912Q185.941 4.89258 186.267 4.89258C186.517 4.89258 186.712 4.96973 186.854 5.12402L186.898 5.17871C187.01 5.33325 187.066 5.55737 187.066 5.8512L187.065 8.80994L190.472 8.80994C190.711 8.80994 190.896 8.8623 191.026 8.96692C191.157 9.07166 191.222 9.23413 191.222 9.45459C191.222 9.76306 191.086 10.0276 190.814 10.2479L190.754 10.2935C190.48 10.4835 190.065 10.5785 189.51 10.5785L187.065 10.5785L187.066 18.1157C187.066 18.9421 187.204 19.5537 187.481 19.9504C187.758 20.3472 188.163 20.5454 188.695 20.5454C188.924 20.5454 189.136 20.4958 189.331 20.3967C189.527 20.2975 189.703 20.1681 189.861 20.0083C190.018 19.8485 190.168 19.6694 190.309 19.4711C190.45 19.2727 190.586 19.0743 190.716 18.876C190.825 18.8319 190.92 18.8512 191.002 18.9338C191.074 19.0068 191.11 19.1462 191.11 19.3522C191.11 19.3795 191.109 19.4082 191.108 19.438C191.032 20.3306 190.784 21.1157 190.366 21.7933C189.948 22.4711 189.38 23 188.663 23.3801ZM202.989 23.1405C201.935 23.6804 200.718 23.9504 199.339 23.9504C197.817 23.9504 196.481 23.6337 195.329 23C194.177 22.3663 193.278 21.4794 192.632 20.3389C191.985 19.1984 191.662 17.8788 191.662 16.3801Q191.662 14.0165 192.599 12.2396C193.224 11.0551 194.128 10.1322 195.313 9.47107Q197.089 8.47937 199.583 8.47937C200.996 8.47937 202.212 8.75757 203.234 9.31409Q204.288 9.88843 205.007 10.7446Q205.332 11.1326 205.589 11.5785C206.138 12.5317 206.412 13.5923 206.412 14.7604C206.412 15.2672 206.276 15.6666 206.005 15.9586L205.94 16.0234C205.672 16.2723 205.303 16.3967 204.831 16.3967L197.38 16.3967L197.396 16.4729C197.594 17.3804 197.932 18.1071 198.409 18.6528Q198.856 19.1628 199.411 19.4866Q200.376 20.0496 201.669 20.0496C202.538 20.0496 203.307 19.8512 203.975 19.4546C204.644 19.0579 205.092 18.5068 205.32 17.8016C205.451 17.6584 205.567 17.562 205.671 17.5125C205.774 17.4628 205.863 17.438 205.939 17.438C206.048 17.438 206.14 17.4821 206.217 17.5702C206.293 17.6584 206.331 17.8071 206.331 18.0165C206.331 19.0964 206.037 20.0854 205.451 20.9835C204.864 21.8816 204.043 22.6006 202.989 23.1405ZM197.21 15.0717Q197.187 14.6914 197.187 14.281C197.187 13.2452 197.263 12.4298 197.415 11.8347C197.567 11.2396 197.763 10.8182 198.002 10.5702C198.241 10.3223 198.507 10.1984 198.801 10.1984C199.181 10.1984 199.537 10.5234 199.868 11.1736C200.2 11.8237 200.365 12.9036 200.365 14.4132C200.365 14.876 200.159 15.1074 199.746 15.1074L197.212 15.1074L197.21 15.0717ZM216.884 23.4132C216.748 23.551 216.55 23.6199 216.289 23.6199L208.14 23.6199C207.901 23.6199 207.713 23.5537 207.577 23.4215C207.442 23.2893 207.374 23.1074 207.374 22.876C207.374 22.6997 207.414 22.5537 207.496 22.438Q207.618 22.2644 207.83 22.1157L208.205 21.9669Q208.318 21.9142 208.393 21.8289Q208.46 21.7535 208.498 21.6528C208.553 21.5096 208.58 21.2727 208.58 20.9421L208.58 12.5454C208.58 12.281 208.55 12.0909 208.49 11.9752Q208.482 11.9586 208.472 11.9427Q208.38 11.7922 208.189 11.7025L207.765 11.6528C207.613 11.5647 207.501 11.4711 207.431 11.3719C207.36 11.2727 207.325 11.146 207.325 10.9917C207.325 10.8154 207.379 10.6584 207.488 10.5206C207.596 10.3829 207.781 10.2644 208.042 10.1653L212.671 8.82642Q213.078 8.66113 213.355 8.59509C213.54 8.55103 213.698 8.52893 213.828 8.52893C214.013 8.52893 214.151 8.59509 214.244 8.72729L214.273 8.77527C214.349 8.91345 214.402 9.1344 214.431 9.43799L214.555 12.0068L214.583 11.9116C214.638 11.7327 214.699 11.561 214.765 11.3967Q215.36 9.91736 216.338 9.19836C216.99 8.71899 217.702 8.47937 218.473 8.47937C219.408 8.47937 220.125 8.79333 220.625 9.42151C221.124 10.0496 221.374 11.0028 221.374 12.281C221.374 13.5482 221.114 14.4794 220.592 15.0743C220.07 15.6694 219.397 15.9669 218.571 15.9669C217.767 15.9669 217.172 15.7631 216.786 15.3553C216.4 14.9476 216.197 14.3691 216.175 13.6199L216.159 12.9586C216.148 12.7052 216.099 12.5068 216.012 12.3636C215.925 12.2203 215.784 12.1488 215.588 12.1488C215.393 12.1488 215.222 12.2507 215.075 12.4546C214.928 12.6584 214.817 12.9697 214.741 13.3884C214.665 13.8071 214.627 14.3416 214.627 14.9917L214.627 20.8099C214.627 21.1184 214.676 21.3636 214.773 21.5454C214.871 21.7273 215.023 21.8402 215.23 21.8843L216.452 22.1322C216.68 22.1653 216.843 22.2507 216.941 22.3884C217.039 22.5261 217.088 22.6887 217.088 22.876C217.088 23.0964 217.02 23.2755 216.884 23.4132ZM233.452 22.6611C232.419 23.5537 230.936 24 229.002 24Q228.024 24 227.38 23.8182C226.951 23.697 226.603 23.5758 226.337 23.4546C226.071 23.3334 225.856 23.2727 225.693 23.2727C225.53 23.2727 225.316 23.3334 225.05 23.4546L224.251 23.8182Q223.852 24 223.575 24C223.412 24 223.26 23.9449 223.118 23.8347C222.977 23.7245 222.868 23.5042 222.792 23.1736L222.287 19.8843C222.228 19.6331 222.199 19.4056 222.199 19.202C222.199 19.0663 222.212 18.941 222.238 18.8264C222.303 18.5399 222.45 18.3527 222.678 18.2644C222.917 18.1543 223.154 18.1488 223.387 18.2479C223.621 18.3472 223.83 18.5234 224.015 18.7769C224.634 19.7356 225.194 20.4904 225.693 21.0413C226.193 21.5923 226.68 21.9807 227.152 22.2067C227.625 22.4325 228.122 22.5454 228.644 22.5454C229.198 22.5454 229.611 22.4132 229.882 22.1488C230.154 21.8843 230.29 21.5482 230.29 21.1405C230.29 20.8319 230.211 20.551 230.053 20.2975C229.896 20.0441 229.608 19.8099 229.19 19.5951C228.771 19.3801 228.171 19.1681 227.389 18.9586C226.182 18.6501 225.183 18.2479 224.39 17.7521C223.596 17.2562 223.007 16.6611 222.621 15.9669C222.235 15.2727 222.043 14.4628 222.043 13.5372C222.043 12.4904 222.301 11.5895 222.817 10.8347C223.333 10.0798 224.039 9.49866 224.936 9.09094Q226.28 8.47937 227.959 8.47937C228.633 8.47937 229.181 8.54541 229.605 8.67773C230.029 8.80994 230.358 8.94214 230.591 9.07434C230.825 9.20667 231.001 9.27271 231.121 9.27271C231.251 9.27271 231.444 9.20935 231.7 9.08264C231.955 8.95593 232.213 8.83191 232.474 8.71069Q232.865 8.52893 233.126 8.52893C233.321 8.52893 233.479 8.59509 233.598 8.72729C233.718 8.8595 233.799 9.08545 233.843 9.40491L234.267 12.4463C234.311 12.7034 234.333 12.9258 234.333 13.1135C234.333 13.2477 234.322 13.3641 234.299 13.4628C234.245 13.6997 234.104 13.8512 233.875 13.9174Q233.843 13.925 233.81 13.9296Q233.562 13.9633 233.289 13.8099C233.082 13.6942 232.876 13.5096 232.669 13.2562C231.876 12.0551 231.151 11.2067 230.493 10.7107C229.836 10.2148 229.138 9.96692 228.399 9.96692Q227.6 9.96692 227.193 10.3141C226.921 10.5454 226.785 10.8485 226.785 11.2231C226.785 11.4766 226.845 11.7135 226.965 11.9338Q227.144 12.2644 227.625 12.5537C227.945 12.7466 228.399 12.9366 228.986 13.124C230.561 13.6088 231.784 14.124 232.653 14.6694C233.522 15.2148 234.131 15.8402 234.478 16.5454C234.826 17.2507 235 18.0717 235 19.0083C235 20.551 234.484 21.7686 233.452 22.6611Z" clip-rule="evenodd" fill="#333D4B" fill-opacity="1.000000" fill-rule="evenodd"/>
	<path d="M13.4894 4.00269C9.97491 0.491089 4.76556 -0.0144043 1.87659 2.87769C-1.01379 5.76819 -0.508362 10.9778 3.00006 14.4908C3.93604 15.4269 5.01453 16.1423 6.15302 16.6554C6.52649 14.4849 7.59747 12.3983 9.22345 10.6853C8.68494 10.4933 8.133 10.3313 7.55701 10.1738C4.14606 9.23779 2.45111 6.39221 2.05511 3.05615C3.01807 4.21423 3.72754 5.5387 4.90656 6.50928C6.16351 7.54419 7.54797 7.91919 9.06744 8.36023C9.75592 8.55969 10.3544 8.85522 10.9034 9.20032C12.3464 8.14575 13.9738 7.44373 15.6538 7.15417C15.1423 6.01575 14.4254 4.93872 13.4894 4.00269ZM7.54651 17.4894C7.76996 15.3159 8.82294 13.1903 10.5104 11.5028C14.0248 7.99121 19.2342 7.48425 22.1232 10.3778C25.0136 13.2683 24.5096 18.4779 20.9967 21.991C19.3092 23.6785 17.1838 24.7314 15.0103 24.9565C14.7208 24.985 14.4343 25 14.1538 25C12.2849 25 10.6154 24.3445 9.38544 23.1145C7.96948 21.7 7.31549 19.7019 7.54651 17.4894ZM16.4413 17.6754C15.0853 18.0459 13.8389 18.3939 12.6869 19.2729C11.3699 20.2794 10.6049 21.6835 9.56244 22.936C9.94342 19.6525 11.5934 16.8309 14.9308 15.8618C16.4518 15.4209 17.8348 15.0443 19.0917 14.0109C20.2722 13.0403 20.9817 11.7173 21.9432 10.5577C21.5457 13.8938 19.8522 16.7394 16.4413 17.6754Z" clip-rule="evenodd" fill="#0E8784" fill-opacity="1.000000" fill-rule="evenodd"/>
</svg>
